# xmcd
#
# Track frame offsets: 
#        150
#        18196
#        35618
#        49735
#        66413
#        80151
#        97948
#        117571
#        135229
#        153785
#        170045
#        188709
#        206880
#        225853
#        241621
#        257698
#        277025
#        293628
#        311658
#        329962
#
# Disc length: 4650 seconds
#
# Revision: 0
# Processed by: cddbd v1.5.2PL0 Copyright (c) Steve Scherf et al.
# Submitted via: ExactAudioCopy v0.99pb3
#
DISCID=1c122814
DTITLE=Various Artist - Nu Urban Traxx #124
DYEAR=2008
DGENRE=Rap
TTITLE0=Rihanna - Disturbia
TTITLE1=Duffy Ft The Game - Mercy (Cool and Dre Remix)
TTITLE2=Ray J - Gifts
TTITLE3=Maino - Hi Hater
TTITLE4=Mariah Carey - I'll Be Lovin' You Long Time
TTITLE5=Karina - Can't Find The Words
TTITLE6=Plies Ft Jamie Foxx and The Dream - Please Excuse My Hands
TTITLE7=Young Steff - Professional
TTITLE8=LL Cool J Ft The Dream - Baby
TTITLE9=Robin Thicke - Magic
TTITLE10=Jarvis Ft Ludacris - Pretty Girl
TTITLE11=Snoop Dogg - Those Gurlz
TTITLE12=Day 26 - Since You've Been Gone
TTITLE13=Blood Raw Ft Young Jeezy - Louie
TTITLE14=Michelle Williams Ft Flo Rida - We Break The Dawn Remix
TTITLE15=Solange - I Decided
TTITLE16=2 Pistols Ft Ray J - You Know Me
TTITLE17=Ryan Leslie Ft Cassie and Fabolous - Addiction Remix
TTITLE18=Nas Ft Keri Hilson - Hero
TTITLE19=The D.E.Y. - I Miss You
EXTD=
EXTT0=
EXTT1=
EXTT2=
EXTT3=
EXTT4=
EXTT5=
EXTT6=
EXTT7=
EXTT8=
EXTT9=
EXTT10=
EXTT11=
EXTT12=
EXTT13=
EXTT14=
EXTT15=
EXTT16=
EXTT17=
EXTT18=
EXTT19=
PLAYORDER=
